<?xml version="1.0" encoding="UTF-8" standalone="no"?>
<!-- Created with Inkscape (http://www.inkscape.org/) -->

<svg
   width="426.69882mm"
   height="426.69882mm"
   viewBox="0 0 426.69882 426.69882"
   version="1.1"
   id="svg1"
   xmlns="http://www.w3.org/2000/svg"
   xmlns:svg="http://www.w3.org/2000/svg">
  <defs
     id="defs1" />
  <g
     id="layer1"
     transform="translate(163.5125,88.635419)">
    <path
       id="path2"
       d="m 43.617426,92.089095 c -18.016353,0 -32.621352,14.608545 -32.621352,32.624895 0,18.01635 14.604999,32.6249 32.621352,32.6249 18.019897,0 32.624897,-14.60855 32.624897,-32.6249 0,-18.01635 -14.605,-32.624895 -32.624897,-32.624895 z M 240.17815,296.15341 c 0,10.42103 -8.48079,18.89828 -18.89831,18.89828 h -342.88235 c -10.42106,0 -18.89831,-8.47725 -18.89831,-18.89828 V -46.725422 c 0,-10.421054 8.47725,-18.898304 18.89831,-18.898304 h 342.88235 c 10.41752,0 18.89831,8.47725 18.89831,18.898304 z M 221.27984,-88.635419 h -342.88235 c -23.11047,0 -41.90999,18.799527 -41.90999,41.909997 V 296.15341 c 0,23.11045 18.79952,41.91 41.90999,41.91 h 342.88235 c 23.10694,0 41.90648,-18.79955 41.90648,-41.91 V -46.725422 c 0,-23.11047 -18.79954,-41.909997 -41.90648,-41.909997 z M 43.617426,92.089095 c -18.016353,0 -32.621352,14.608545 -32.621352,32.624895 0,18.01635 14.604999,32.6249 32.621352,32.6249 18.019897,0 32.624897,-14.60855 32.624897,-32.6249 0,-18.01635 -14.605,-32.624895 -32.624897,-32.624895 z m 0,0 c -18.016353,0 -32.621352,14.608545 -32.621352,32.624895 0,18.01635 14.604999,32.6249 32.621352,32.6249 18.019897,0 32.624897,-14.60855 32.624897,-32.6249 0,-18.01635 -14.605,-32.624895 -32.624897,-32.624895"
       style="fill:#1e1e1e;fill-opacity:1;fill-rule:nonzero;stroke:none;stroke-width:0.0352777" />
    <path
       id="path3"
       d="m 43.617426,157.33889 c -18.016353,0 -32.621352,-14.60855 -32.621352,-32.6249 0,-18.01635 14.604999,-32.624895 32.621352,-32.624895 18.019897,0 32.624897,14.608545 32.624897,32.624895 0,18.01635 -14.605,32.6249 -32.624897,32.6249 z M 221.27984,-65.623726 h -342.88235 c -10.42106,0 -18.89831,8.47725 -18.89831,18.898304 V 296.15341 c 0,10.42103 8.47725,18.89828 18.89831,18.89828 h 342.88235 c 10.41752,0 18.89831,-8.47725 18.89831,-18.89828 V -46.725422 c 0,-10.421054 -8.48079,-18.898304 -18.89831,-18.898304"
       style="fill:#ffffff;fill-opacity:1;fill-rule:nonzero;stroke:none;stroke-width:0.0352777" />
  </g>
</svg>
