<?xml version="1.0" encoding="UTF-8" standalone="no"?>
<!-- Created with Inkscape (http://www.inkscape.org/) -->

<svg
   width="426.69879mm"
   height="426.69882mm"
   viewBox="0 0 426.69879 426.69882"
   version="1.1"
   id="svg1"
   xmlns="http://www.w3.org/2000/svg"
   xmlns:svg="http://www.w3.org/2000/svg">
  <defs
     id="defs1" />
  <g
     id="layer1"
     transform="translate(123.56043,142.34583)">
    <path
       id="path4"
       d="m -3.1221221,-60.868268 c -18.0198709,0 -32.6248709,14.605 -32.6248709,32.624871 0,18.016378 14.605,32.6213779 32.6248709,32.6213779 18.0163781,0 32.6213781,-14.6049999 32.6213781,-32.6213779 0,-18.019871 -14.605,-32.624871 -32.6213781,-32.624871 z M 182.70004,137.62918 c -18.01635,0 -32.62135,14.605 -32.62135,32.6249 0,18.01635 14.605,32.62135 32.62135,32.62135 18.0199,0 32.6249,-14.605 32.6249,-32.62135 0,-18.0199 -14.605,-32.6249 -32.6249,-32.6249 z M 280.12669,242.443 c 0,10.42103 -8.47725,18.89828 -18.89832,18.89828 H -81.650428 c -10.421064,0 -18.898312,-8.47725 -18.898312,-18.89828 v -342.87883 c 0,-10.42106 8.477248,-18.89831 18.898312,-18.89831 H 261.22837 c 10.42107,0 18.89832,8.47725 18.89832,18.89831 z M 261.22837,-142.34583 H -81.650428 c -23.110482,0 -41.910002,18.79953 -41.910002,41.91 V 242.443 c 0,23.11045 18.79952,41.91 41.910002,41.91 H 261.22837 c 23.11049,0 41.91,-18.79955 41.91,-41.91 v -342.87883 c 0,-23.11047 -18.79951,-41.91 -41.91,-41.91 z M -3.1221221,-60.868268 c -18.0198709,0 -32.6248709,14.605 -32.6248709,32.624871 0,18.016378 14.605,32.6213779 32.6248709,32.6213779 18.0163781,0 32.6213781,-14.6049999 32.6213781,-32.6213779 0,-18.019871 -14.605,-32.624871 -32.6213781,-32.624871 z M 182.70004,137.62918 c -18.01635,0 -32.62135,14.605 -32.62135,32.6249 0,18.01635 14.605,32.62135 32.62135,32.62135 18.0199,0 32.6249,-14.605 32.6249,-32.62135 0,-18.0199 -14.605,-32.6249 -32.6249,-32.6249 z M -3.1221221,-60.868268 c -18.0198709,0 -32.6248709,14.605 -32.6248709,32.624871 0,18.016378 14.605,32.6213779 32.6248709,32.6213779 18.0163781,0 32.6213781,-14.6049999 32.6213781,-32.6213779 0,-18.019871 -14.605,-32.624871 -32.6213781,-32.624871 z M 182.70004,137.62918 c -18.01635,0 -32.62135,14.605 -32.62135,32.6249 0,18.01635 14.605,32.62135 32.62135,32.62135 18.0199,0 32.6249,-14.605 32.6249,-32.62135 0,-18.0199 -14.605,-32.6249 -32.6249,-32.6249"
       style="fill:#1e1e1e;fill-opacity:1;fill-rule:nonzero;stroke:none;stroke-width:0.0352777" />
    <path
       id="path5"
       d="m 182.70004,202.87543 c -18.01635,0 -32.62135,-14.605 -32.62135,-32.62135 0,-18.0199 14.605,-32.6249 32.62135,-32.6249 18.0199,0 32.6249,14.605 32.6249,32.6249 0,18.01635 -14.605,32.62135 -32.6249,32.62135 z M -3.1221221,4.3779809 c -18.0198709,0 -32.6248709,-14.6049999 -32.6248709,-32.6213779 0,-18.019871 14.605,-32.624871 32.6248709,-32.624871 18.0163781,0 32.6213781,14.605 32.6213781,32.624871 0,18.016378 -14.605,32.6213779 -32.6213781,32.6213779 z M 261.22837,-119.33414 H -81.650428 c -10.421064,0 -18.898312,8.47725 -18.898312,18.89831 V 242.443 c 0,10.42103 8.477248,18.89828 18.898312,18.89828 H 261.22837 c 10.42107,0 18.89832,-8.47725 18.89832,-18.89828 v -342.87883 c 0,-10.42106 -8.47725,-18.89831 -18.89832,-18.89831"
       style="fill:#ffffff;fill-opacity:1;fill-rule:nonzero;stroke:none;stroke-width:0.0352777" />
  </g>
</svg>
