<?xml version="1.0" encoding="UTF-8" standalone="no"?>
<!-- Created with Inkscape (http://www.inkscape.org/) -->

<svg
   width="426.69882mm"
   height="426.69882mm"
   viewBox="0 0 426.69882 426.69882"
   version="1.1"
   id="svg1"
   xmlns="http://www.w3.org/2000/svg"
   xmlns:svg="http://www.w3.org/2000/svg">
  <defs
     id="defs1" />
  <g
     id="layer1"
     transform="translate(43.127124,97.631249)">
    <path
       id="path6"
       d="m 66.727875,-26.737029 c -18.019898,0 -32.624898,14.605007 -32.624898,32.6248784 0,18.0163786 14.605,32.6213786 32.624898,32.6213786 18.016352,0 32.621352,-14.605 32.621352,-32.6213786 0,-18.0198714 -14.605,-32.6248784 -32.621352,-32.6248784 z M 170.22229,83.093265 c -18.0199,0 -32.6249,14.608545 -32.6249,32.624895 0,18.01635 14.605,32.6249 32.6249,32.6249 18.01635,0 32.62135,-14.60855 32.62135,-32.6249 0,-18.01635 -14.605,-32.624895 -32.62135,-32.624895 z M 273.71671,192.9271 c -18.01638,0 -32.6249,14.605 -32.6249,32.62489 0,18.01636 14.60852,32.62136 32.6249,32.62136 18.01635,0 32.62487,-14.605 32.62487,-32.62136 0,-18.01989 -14.60852,-32.62489 -32.62487,-32.62489 z m 86.84328,94.23048 c 0,10.42103 -8.47725,18.89828 -18.89829,18.89828 H -1.2206434 c -10.4175456,0 -18.8983146,-8.47725 -18.8983146,-18.89828 V -55.721252 c 0,-10.421054 8.480769,-18.898304 18.8983146,-18.898304 H 341.6617 c 10.42104,0 18.89829,8.47725 18.89829,18.898304 z M 341.6617,-97.631249 H -1.2206434 c -23.1069616,0 -41.9064806,18.799527 -41.9064806,41.909997 V 287.15758 c 0,23.11045 18.799519,41.91 41.9064806,41.91 H 341.6617 c 23.11046,0 41.91,-18.79955 41.91,-41.91 V -55.721252 c 0,-23.11047 -18.79954,-41.909997 -41.91,-41.909997 z m -274.933825,70.89422 c -18.019898,0 -32.624898,14.605007 -32.624898,32.6248784 0,18.0163786 14.605,32.6213786 32.624898,32.6213786 18.016352,0 32.621352,-14.605 32.621352,-32.6213786 0,-18.0198714 -14.605,-32.6248784 -32.621352,-32.6248784 z M 170.22229,83.093265 c -18.0199,0 -32.6249,14.608545 -32.6249,32.624895 0,18.01635 14.605,32.6249 32.6249,32.6249 18.01635,0 32.62135,-14.60855 32.62135,-32.6249 0,-18.01635 -14.605,-32.624895 -32.62135,-32.624895 z M 273.71671,192.9271 c -18.01638,0 -32.6249,14.605 -32.6249,32.62489 0,18.01636 14.60852,32.62136 32.6249,32.62136 18.01635,0 32.62487,-14.605 32.62487,-32.62136 0,-18.01989 -14.60852,-32.62489 -32.62487,-32.62489 z M 66.727875,-26.737029 c -18.019898,0 -32.624898,14.605007 -32.624898,32.6248784 0,18.0163786 14.605,32.6213786 32.624898,32.6213786 18.016352,0 32.621352,-14.605 32.621352,-32.6213786 0,-18.0198714 -14.605,-32.6248784 -32.621352,-32.6248784 z M 170.22229,83.093265 c -18.0199,0 -32.6249,14.608545 -32.6249,32.624895 0,18.01635 14.605,32.6249 32.6249,32.6249 18.01635,0 32.62135,-14.60855 32.62135,-32.6249 0,-18.01635 -14.605,-32.624895 -32.62135,-32.624895 z M 273.71671,192.9271 c -18.01638,0 -32.6249,14.605 -32.6249,32.62489 0,18.01636 14.60852,32.62136 32.6249,32.62136 18.01635,0 32.62487,-14.605 32.62487,-32.62136 0,-18.01989 -14.60852,-32.62489 -32.62487,-32.62489"
       style="fill:#1e1e1e;fill-opacity:1;fill-rule:nonzero;stroke:none;stroke-width:0.0352777" />
    <path
       id="path7"
       d="m 273.71671,258.17335 c -18.01638,0 -32.6249,-14.605 -32.6249,-32.62136 0,-18.01989 14.60852,-32.62489 32.6249,-32.62489 18.01635,0 32.62487,14.605 32.62487,32.62489 0,18.01636 -14.60852,32.62136 -32.62487,32.62136 z M 170.22229,148.34306 c -18.0199,0 -32.6249,-14.60855 -32.6249,-32.6249 0,-18.01635 14.605,-32.624895 32.6249,-32.624895 18.01635,0 32.62135,14.608545 32.62135,32.624895 0,18.01635 -14.605,32.6249 -32.62135,32.6249 z M 66.727875,38.509228 c -18.019898,0 -32.624898,-14.605 -32.624898,-32.6213786 0,-18.0198714 14.605,-32.6248784 32.624898,-32.6248784 18.016352,0 32.621352,14.605007 32.621352,32.6248784 0,18.0163786 -14.605,32.6213786 -32.621352,32.6213786 z M 341.6617,-74.619556 H -1.2206434 c -10.4175456,0 -18.8983146,8.47725 -18.8983146,18.898304 V 287.15758 c 0,10.42103 8.480769,18.89828 18.8983146,18.89828 H 341.6617 c 10.42104,0 18.89829,-8.47725 18.89829,-18.89828 V -55.721252 c 0,-10.421054 -8.47725,-18.898304 -18.89829,-18.898304"
       style="fill:#ffffff;fill-opacity:1;fill-rule:nonzero;stroke:none;stroke-width:0.0352777" />
  </g>
</svg>
