<?xml version="1.0" encoding="UTF-8" standalone="no"?>
<!-- Created with Inkscape (http://www.inkscape.org/) -->

<svg
   width="426.69882mm"
   height="426.69882mm"
   viewBox="0 0 426.69882 426.69882"
   version="1.1"
   id="svg1"
   xmlns="http://www.w3.org/2000/svg"
   xmlns:svg="http://www.w3.org/2000/svg">
  <defs
     id="defs1" />
  <g
     id="layer1"
     transform="translate(108.47917,64.822927)">
    <path
       id="path8"
       d="m 1.3758211,225.73542 c -18.0163521,0 -32.6248971,14.605 -32.6248971,32.62138 0,18.01635 14.608545,32.62487 32.6248971,32.62487 18.0163519,0 32.6248969,-14.60852 32.6248969,-32.62487 0,-18.01638 -14.608545,-32.62138 -32.6248969,-32.62138 z m 0,-219.6641169 c -18.0163521,0 -32.6248971,14.6049999 -32.6248971,32.6213519 0,18.019898 14.608545,32.624897 32.6248971,32.624897 18.0163519,0 32.6248969,-14.604999 32.6248969,-32.624897 0,-18.016352 -14.608545,-32.6213519 -32.6248969,-32.6213519 z M 208.36465,225.73542 c -18.01638,0 -32.62138,14.605 -32.62138,32.62138 0,18.01635 14.605,32.62487 32.62138,32.62487 18.01987,0 32.62487,-14.60852 32.62487,-32.62487 0,-18.01638 -14.605,-32.62138 -32.62487,-32.62138 z m 0,-219.6641169 c -18.01638,0 -32.62138,14.6049999 -32.62138,32.6213519 0,18.019898 14.605,32.624897 32.62138,32.624897 18.01987,0 32.62487,-14.604999 32.62487,-32.624897 0,-18.016352 -14.605,-32.6213519 -32.62487,-32.6213519 z M 295.21148,319.9659 c 0,10.42107 -8.48079,18.89832 -18.89831,18.89832 H -66.569178 c -10.421064,0 -18.898314,-8.47725 -18.898314,-18.89832 V -22.916446 c 0,-10.421065 8.47725,-18.898315 18.898314,-18.898315 H 276.31317 c 10.41752,0 18.89831,8.47725 18.89831,18.898315 z M 276.31317,-64.822927 H -66.569178 c -23.11047,0 -41.909992,18.799545 -41.909992,41.906481 V 319.9659 c 0,23.11048 18.799522,41.91 41.909992,41.91 H 276.31317 c 23.10694,0 41.90648,-18.79952 41.90648,-41.91 V -22.916446 c 0,-23.106936 -18.79954,-41.906481 -41.90648,-41.906481 z M 1.3758211,225.73542 c -18.0163521,0 -32.6248971,14.605 -32.6248971,32.62138 0,18.01635 14.608545,32.62487 32.6248971,32.62487 18.0163519,0 32.6248969,-14.60852 32.6248969,-32.62487 0,-18.01638 -14.608545,-32.62138 -32.6248969,-32.62138 z m 0,-219.6641169 c -18.0163521,0 -32.6248971,14.6049999 -32.6248971,32.6213519 0,18.019898 14.608545,32.624897 32.6248971,32.624897 18.0163519,0 32.6248969,-14.604999 32.6248969,-32.624897 0,-18.016352 -14.608545,-32.6213519 -32.6248969,-32.6213519 z M 208.36465,225.73542 c -18.01638,0 -32.62138,14.605 -32.62138,32.62138 0,18.01635 14.605,32.62487 32.62138,32.62487 18.01987,0 32.62487,-14.60852 32.62487,-32.62487 0,-18.01638 -14.605,-32.62138 -32.62487,-32.62138 z m 0,-154.417868 c 18.01987,0 32.62487,-14.604999 32.62487,-32.624897 0,-18.016352 -14.605,-32.6213519 -32.62487,-32.6213519 -18.01638,0 -32.62138,14.6049999 -32.62138,32.6213519 0,18.019898 14.605,32.624897 32.62138,32.624897 z M 1.3758211,6.0713031 c -18.0163521,0 -32.6248971,14.6049999 -32.6248971,32.6213519 0,18.019898 14.608545,32.624897 32.6248971,32.624897 18.0163519,0 32.6248969,-14.604999 32.6248969,-32.624897 0,-18.016352 -14.608545,-32.6213519 -32.6248969,-32.6213519 z m 0,219.6641169 c -18.0163521,0 -32.6248971,14.605 -32.6248971,32.62138 0,18.01635 14.608545,32.62487 32.6248971,32.62487 18.0163519,0 32.6248969,-14.60852 32.6248969,-32.62487 0,-18.01638 -14.608545,-32.62138 -32.6248969,-32.62138 z M 208.36465,6.0713031 c -18.01638,0 -32.62138,14.6049999 -32.62138,32.6213519 0,18.019898 14.605,32.624897 32.62138,32.624897 18.01987,0 32.62487,-14.604999 32.62487,-32.624897 0,-18.016352 -14.605,-32.6213519 -32.62487,-32.6213519 z m 0,219.6641169 c -18.01638,0 -32.62138,14.605 -32.62138,32.62138 0,18.01635 14.605,32.62487 32.62138,32.62487 18.01987,0 32.62487,-14.60852 32.62487,-32.62487 0,-18.01638 -14.605,-32.62138 -32.62487,-32.62138"
       style="fill:#1e1e1e;fill-opacity:1;fill-rule:nonzero;stroke:none;stroke-width:0.0352777" />
    <path
       id="path9"
       d="m 208.36465,71.317552 c -18.01638,0 -32.62138,-14.604999 -32.62138,-32.624897 0,-18.016352 14.605,-32.6213519 32.62138,-32.6213519 18.01987,0 32.62487,14.6049999 32.62487,32.6213519 0,18.019898 -14.605,32.624897 -32.62487,32.624897 z m 0,219.664118 c -18.01638,0 -32.62138,-14.60852 -32.62138,-32.62487 0,-18.01638 14.605,-32.62138 32.62138,-32.62138 18.01987,0 32.62487,14.605 32.62487,32.62138 0,18.01635 -14.605,32.62487 -32.62487,32.62487 z M 1.3758211,71.317552 c -18.0163521,0 -32.6248971,-14.604999 -32.6248971,-32.624897 0,-18.016352 14.608545,-32.6213519 32.6248971,-32.6213519 18.0163519,0 32.6248969,14.6049999 32.6248969,32.6213519 0,18.019898 -14.608545,32.624897 -32.6248969,32.624897 z m 0,219.664118 c -18.0163521,0 -32.6248971,-14.60852 -32.6248971,-32.62487 0,-18.01638 14.608545,-32.62138 32.6248971,-32.62138 18.0163519,0 32.6248969,14.605 32.6248969,32.62138 0,18.01635 -14.608545,32.62487 -32.6248969,32.62487 z M 276.31317,-41.814761 H -66.569178 c -10.421064,0 -18.898314,8.47725 -18.898314,18.898315 V 319.9659 c 0,10.42107 8.47725,18.89832 18.898314,18.89832 H 276.31317 c 10.41752,0 18.89831,-8.47725 18.89831,-18.89832 V -22.916446 c 0,-10.421065 -8.48079,-18.898315 -18.89831,-18.898315"
       style="fill:#ffffff;fill-opacity:1;fill-rule:nonzero;stroke:none;stroke-width:0.0352777" />
  </g>
</svg>
