<?xml version="1.0" encoding="UTF-8" standalone="no"?>
<!-- Created with Inkscape (http://www.inkscape.org/) -->

<svg
   width="426.69879mm"
   height="426.69882mm"
   viewBox="0 0 426.69879 426.69882"
   version="1.1"
   id="svg1"
   xmlns="http://www.w3.org/2000/svg"
   xmlns:svg="http://www.w3.org/2000/svg">
  <defs
     id="defs1" />
  <g
     id="layer1"
     transform="translate(189.70626,119.32709)">
    <path
       id="path10"
       d="m -79.851285,171.23126 c -18.019871,0 -32.624875,14.605 -32.624875,32.62138 0,18.01635 14.605004,32.62487 32.624875,32.62487 18.016378,0 32.621378,-14.60852 32.621378,-32.62487 0,-18.01638 -14.605,-32.62138 -32.621378,-32.62138 z m 0,-219.664117 c -18.019871,0 -32.624875,14.605 -32.624875,32.621352 0,18.0198975 14.605004,32.624897 32.624875,32.624897 18.016378,0 32.621378,-14.6049995 32.621378,-32.624897 0,-18.016352 -14.605,-32.621352 -32.621378,-32.621352 z M 23.64313,61.39743 c -18.016352,0 -32.6248708,14.604999 -32.6248708,32.624897 0,18.016353 14.6085188,32.621353 32.6248708,32.621353 18.016379,0 32.624897,-14.605 32.624897,-32.621353 0,-18.019898 -14.608518,-32.624897 -32.624897,-32.624897 z m 103.49442,109.83383 c -18.01636,0 -32.621356,14.605 -32.621356,32.62138 0,18.01635 14.604996,32.62487 32.621356,32.62487 18.01989,0 32.62489,-14.60852 32.62489,-32.62487 0,-18.01638 -14.605,-32.62138 -32.62489,-32.62138 z m 0,-219.664117 c -18.01636,0 -32.621356,14.605 -32.621356,32.621352 0,18.0198975 14.604996,32.624897 32.621356,32.624897 18.01989,0 32.62489,-14.6049995 32.62489,-32.624897 0,-18.016352 -14.605,-32.621352 -32.62489,-32.621352 z m 86.84331,313.894597 c 0,10.42107 -8.47725,18.89832 -18.89832,18.89832 h -342.8788 c -10.42106,0 -18.89831,-8.47725 -18.89831,-18.89832 V -77.420606 c 0,-10.421065 8.47725,-18.898315 18.89831,-18.898315 h 342.8788 c 10.42107,0 18.89832,8.47725 18.89832,18.898315 z m -18.89832,-384.78883 h -342.8788 c -23.11048,0 -41.91,18.79955 -41.91,41.906484 V 265.46174 c 0,23.11048 18.79952,41.91 41.91,41.91 h 342.8788 c 23.11049,0 41.91,-18.79952 41.91,-41.91 V -77.420606 c 0,-23.106934 -18.79951,-41.906484 -41.91,-41.906484 z M -79.851285,171.23126 c -18.019871,0 -32.624875,14.605 -32.624875,32.62138 0,18.01635 14.605004,32.62487 32.624875,32.62487 18.016378,0 32.621378,-14.60852 32.621378,-32.62487 0,-18.01638 -14.605,-32.62138 -32.621378,-32.62138 z m 0,-219.664117 c -18.019871,0 -32.624875,14.605 -32.624875,32.621352 0,18.0198975 14.605004,32.624897 32.624875,32.624897 18.016378,0 32.621378,-14.6049995 32.621378,-32.624897 0,-18.016352 -14.605,-32.621352 -32.621378,-32.621352 z M 23.64313,61.39743 c -18.016352,0 -32.6248708,14.604999 -32.6248708,32.624897 0,18.016353 14.6085188,32.621353 32.6248708,32.621353 18.016379,0 32.624897,-14.605 32.624897,-32.621353 0,-18.019898 -14.608518,-32.624897 -32.624897,-32.624897 z m 103.49442,109.83383 c -18.01636,0 -32.621356,14.605 -32.621356,32.62138 0,18.01635 14.604996,32.62487 32.621356,32.62487 18.01989,0 32.62489,-14.60852 32.62489,-32.62487 0,-18.01638 -14.605,-32.62138 -32.62489,-32.62138 z m 0,-154.417868 c 18.01989,0 32.62489,-14.6049995 32.62489,-32.624897 0,-18.016352 -14.605,-32.621352 -32.62489,-32.621352 -18.01636,0 -32.621356,14.605 -32.621356,32.621352 0,18.0198975 14.604996,32.624897 32.621356,32.624897 z M -79.851285,-48.432857 c -18.019871,0 -32.624875,14.605 -32.624875,32.621352 0,18.0198975 14.605004,32.624897 32.624875,32.624897 18.016378,0 32.621378,-14.6049995 32.621378,-32.624897 0,-18.016352 -14.605,-32.621352 -32.621378,-32.621352 z M 23.64313,61.39743 c -18.016352,0 -32.6248708,14.604999 -32.6248708,32.624897 0,18.016353 14.6085188,32.621353 32.6248708,32.621353 18.016379,0 32.624897,-14.605 32.624897,-32.621353 0,-18.019898 -14.608518,-32.624897 -32.624897,-32.624897 z M -79.851285,171.23126 c -18.019871,0 -32.624875,14.605 -32.624875,32.62138 0,18.01635 14.605004,32.62487 32.624875,32.62487 18.016378,0 32.621378,-14.60852 32.621378,-32.62487 0,-18.01638 -14.605,-32.62138 -32.621378,-32.62138 z M 127.13755,-48.432857 c -18.01636,0 -32.621356,14.605 -32.621356,32.621352 0,18.0198975 14.604996,32.624897 32.621356,32.624897 18.01989,0 32.62489,-14.6049995 32.62489,-32.624897 0,-18.016352 -14.605,-32.621352 -32.62489,-32.621352 z m 0,219.664117 c -18.01636,0 -32.621356,14.605 -32.621356,32.62138 0,18.01635 14.604996,32.62487 32.621356,32.62487 18.01989,0 32.62489,-14.60852 32.62489,-32.62487 0,-18.01638 -14.605,-32.62138 -32.62489,-32.62138"
       style="fill:#1e1e1e;fill-opacity:1;fill-rule:nonzero;stroke:none;stroke-width:0.0352777" />
    <path
       id="path11"
       d="m 127.13755,16.813392 c -18.01636,0 -32.621356,-14.6049995 -32.621356,-32.624897 0,-18.016352 14.604996,-32.621352 32.621356,-32.621352 18.01989,0 32.62489,14.605 32.62489,32.621352 0,18.0198975 -14.605,32.624897 -32.62489,32.624897 z m 0,219.664118 c -18.01636,0 -32.621356,-14.60852 -32.621356,-32.62487 0,-18.01638 14.604996,-32.62138 32.621356,-32.62138 18.01989,0 32.62489,14.605 32.62489,32.62138 0,18.01635 -14.605,32.62487 -32.62489,32.62487 z M 23.64313,126.64368 c -18.016352,0 -32.6248708,-14.605 -32.6248708,-32.621353 0,-18.019898 14.6085188,-32.624897 32.6248708,-32.624897 18.016379,0 32.624897,14.604999 32.624897,32.624897 0,18.016353 -14.608518,32.621353 -32.624897,32.621353 z M -79.851285,16.813392 c -18.019871,0 -32.624875,-14.6049995 -32.624875,-32.624897 0,-18.016352 14.605004,-32.621352 32.624875,-32.621352 18.016378,0 32.621378,14.605 32.621378,32.621352 0,18.0198975 -14.605,32.624897 -32.621378,32.624897 z m 0,219.664118 c -18.019871,0 -32.624875,-14.60852 -32.624875,-32.62487 0,-18.01638 14.605004,-32.62138 32.624875,-32.62138 18.016378,0 32.621378,14.605 32.621378,32.62138 0,18.01635 -14.605,32.62487 -32.621378,32.62487 z M 195.08254,-96.318921 h -342.8788 c -10.42106,0 -18.89831,8.47725 -18.89831,18.898315 V 265.46174 c 0,10.42107 8.47725,18.89832 18.89831,18.89832 h 342.8788 c 10.42107,0 18.89832,-8.47725 18.89832,-18.89832 V -77.420606 c 0,-10.421065 -8.47725,-18.898315 -18.89832,-18.898315"
       style="fill:#ffffff;fill-opacity:1;fill-rule:nonzero;stroke:none;stroke-width:0.0352777" />
  </g>
</svg>
