<?xml version="1.0" encoding="UTF-8" standalone="no"?>
<!-- Created with Inkscape (http://www.inkscape.org/) -->

<svg
   width="426.69882mm"
   height="426.69882mm"
   viewBox="0 0 426.69882 426.69882"
   version="1.1"
   id="svg1"
   xmlns="http://www.w3.org/2000/svg"
   xmlns:svg="http://www.w3.org/2000/svg">
  <defs
     id="defs1" />
  <g
     id="layer1"
     transform="translate(66.939624,108.21459)">
    <path
       id="path12"
       d="m 42.915375,182.34376 c -18.019898,0 -32.624898,14.605 -32.624898,32.62138 0,18.01635 14.605,32.62487 32.624898,32.62487 18.016352,0 32.621352,-14.60852 32.621352,-32.62487 0,-18.01638 -14.605,-32.62138 -32.621352,-32.62138 z m 0,-109.83383 c -18.019898,0 -32.624898,14.604999 -32.624898,32.6249 0,18.01635 14.605,32.62135 32.624898,32.62135 18.016352,0 32.621352,-14.605 32.621352,-32.62135 0,-18.019901 -14.605,-32.6249 -32.621352,-32.6249 z m 0,-109.830287 c -18.019898,0 -32.624898,14.605 -32.624898,32.621352 0,18.019898 14.605,32.624897 32.624898,32.624897 18.016352,0 32.621352,-14.604999 32.621352,-32.624897 0,-18.016352 -14.605,-32.621352 -32.621352,-32.621352 z M 249.90421,182.34376 c -18.01638,0 -32.6249,14.605 -32.6249,32.62138 0,18.01635 14.60852,32.62487 32.6249,32.62487 18.01635,0 32.62487,-14.60852 32.62487,-32.62487 0,-18.01638 -14.60852,-32.62138 -32.62487,-32.62138 z m 0,-109.83383 c -18.01638,0 -32.6249,14.604999 -32.6249,32.6249 0,18.01635 14.60852,32.62135 32.6249,32.62135 18.01635,0 32.62487,-14.605 32.62487,-32.62135 0,-18.019901 -14.60852,-32.6249 -32.62487,-32.6249 z m 0,-109.830287 c -18.01638,0 -32.6249,14.605 -32.6249,32.621352 0,18.019898 14.60852,32.624897 32.6249,32.624897 18.01635,0 32.62487,-14.604999 32.62487,-32.624897 0,-18.016352 -14.60852,-32.621352 -32.62487,-32.621352 z m 86.84328,313.894597 c 0,10.42107 -8.47725,18.89832 -18.89829,18.89832 H -25.033143 c -10.417546,0 -18.898315,-8.47725 -18.898315,-18.89832 V -66.308106 c 0,-10.421065 8.480769,-18.898315 18.898315,-18.898315 H 317.8492 c 10.42104,0 18.89829,8.47725 18.89829,18.898315 z M 317.8492,-108.21459 H -25.033143 c -23.106962,0 -41.906481,18.799548 -41.906481,41.906484 V 276.57424 c 0,23.11048 18.799519,41.91 41.906481,41.91 H 317.8492 c 23.11046,0 41.91,-18.79952 41.91,-41.91 V -66.308106 c 0,-23.106936 -18.79954,-41.906484 -41.91,-41.906484 z M 42.915375,182.34376 c -18.019898,0 -32.624898,14.605 -32.624898,32.62138 0,18.01635 14.605,32.62487 32.624898,32.62487 18.016352,0 32.621352,-14.60852 32.621352,-32.62487 0,-18.01638 -14.605,-32.62138 -32.621352,-32.62138 z m 0,-109.83383 c -18.019898,0 -32.624898,14.604999 -32.624898,32.6249 0,18.01635 14.605,32.62135 32.624898,32.62135 18.016352,0 32.621352,-14.605 32.621352,-32.62135 0,-18.019901 -14.605,-32.6249 -32.621352,-32.6249 z m 0,-109.830287 c -18.019898,0 -32.624898,14.605 -32.624898,32.621352 0,18.019898 14.605,32.624897 32.624898,32.624897 18.016352,0 32.621352,-14.604999 32.621352,-32.624897 0,-18.016352 -14.605,-32.621352 -32.621352,-32.621352 z M 249.90421,182.34376 c -18.01638,0 -32.6249,14.605 -32.6249,32.62138 0,18.01635 14.60852,32.62487 32.6249,32.62487 18.01635,0 32.62487,-14.60852 32.62487,-32.62487 0,-18.01638 -14.60852,-32.62138 -32.62487,-32.62138 z m 0,-109.83383 c -18.01638,0 -32.6249,14.604999 -32.6249,32.6249 0,18.01635 14.60852,32.62135 32.6249,32.62135 18.01635,0 32.62487,-14.605 32.62487,-32.62135 0,-18.019901 -14.60852,-32.6249 -32.62487,-32.6249 z m 0,-44.584038 c 18.01635,0 32.62487,-14.604999 32.62487,-32.624897 0,-18.016352 -14.60852,-32.621352 -32.62487,-32.621352 -18.01638,0 -32.6249,14.605 -32.6249,32.621352 0,18.019898 14.60852,32.624897 32.6249,32.624897 z M 42.915375,-37.320357 c -18.019898,0 -32.624898,14.605 -32.624898,32.621352 0,18.019898 14.605,32.624897 32.624898,32.624897 18.016352,0 32.621352,-14.604999 32.621352,-32.624897 0,-18.016352 -14.605,-32.621352 -32.621352,-32.621352 z m 0,109.830287 c -18.019898,0 -32.624898,14.604999 -32.624898,32.6249 0,18.01635 14.605,32.62135 32.624898,32.62135 18.016352,0 32.621352,-14.605 32.621352,-32.62135 0,-18.019901 -14.605,-32.6249 -32.621352,-32.6249 z m 0,109.83383 c -18.019898,0 -32.624898,14.605 -32.624898,32.62138 0,18.01635 14.605,32.62487 32.624898,32.62487 18.016352,0 32.621352,-14.60852 32.621352,-32.62487 0,-18.01638 -14.605,-32.62138 -32.621352,-32.62138 z M 249.90421,-37.320357 c -18.01638,0 -32.6249,14.605 -32.6249,32.621352 0,18.019898 14.60852,32.624897 32.6249,32.624897 18.01635,0 32.62487,-14.604999 32.62487,-32.624897 0,-18.016352 -14.60852,-32.621352 -32.62487,-32.621352 z m 0,109.830287 c -18.01638,0 -32.6249,14.604999 -32.6249,32.6249 0,18.01635 14.60852,32.62135 32.6249,32.62135 18.01635,0 32.62487,-14.605 32.62487,-32.62135 0,-18.019901 -14.60852,-32.6249 -32.62487,-32.6249 z m 0,109.83383 c -18.01638,0 -32.6249,14.605 -32.6249,32.62138 0,18.01635 14.60852,32.62487 32.6249,32.62487 18.01635,0 32.62487,-14.60852 32.62487,-32.62487 0,-18.01638 -14.60852,-32.62138 -32.62487,-32.62138"
       style="fill:#1e1e1e;fill-opacity:1;fill-rule:nonzero;stroke:none;stroke-width:0.0352777" />
    <path
       id="path13"
       d="m 249.90421,27.925892 c -18.01638,0 -32.6249,-14.604999 -32.6249,-32.624897 0,-18.016352 14.60852,-32.621352 32.6249,-32.621352 18.01635,0 32.62487,14.605 32.62487,32.621352 0,18.019898 -14.60852,32.624897 -32.62487,32.624897 z m 0,109.830288 c -18.01638,0 -32.6249,-14.605 -32.6249,-32.62135 0,-18.019901 14.60852,-32.6249 32.6249,-32.6249 18.01635,0 32.62487,14.604999 32.62487,32.6249 0,18.01635 -14.60852,32.62135 -32.62487,32.62135 z m 0,109.83383 c -18.01638,0 -32.6249,-14.60852 -32.6249,-32.62487 0,-18.01638 14.60852,-32.62138 32.6249,-32.62138 18.01635,0 32.62487,14.605 32.62487,32.62138 0,18.01635 -14.60852,32.62487 -32.62487,32.62487 z M 42.915375,27.925892 c -18.019898,0 -32.624898,-14.604999 -32.624898,-32.624897 0,-18.016352 14.605,-32.621352 32.624898,-32.621352 18.016352,0 32.621352,14.605 32.621352,32.621352 0,18.019898 -14.605,32.624897 -32.621352,32.624897 z m 0,109.830288 c -18.019898,0 -32.624898,-14.605 -32.624898,-32.62135 0,-18.019901 14.605,-32.6249 32.624898,-32.6249 18.016352,0 32.621352,14.604999 32.621352,32.6249 0,18.01635 -14.605,32.62135 -32.621352,32.62135 z m 0,109.83383 c -18.019898,0 -32.624898,-14.60852 -32.624898,-32.62487 0,-18.01638 14.605,-32.62138 32.624898,-32.62138 18.016352,0 32.621352,14.605 32.621352,32.62138 0,18.01635 -14.605,32.62487 -32.621352,32.62487 z M 317.8492,-85.206421 H -25.033143 c -10.417546,0 -18.898315,8.47725 -18.898315,18.898315 V 276.57424 c 0,10.42107 8.480769,18.89832 18.898315,18.89832 H 317.8492 c 10.42104,0 18.89829,-8.47725 18.89829,-18.89832 V -66.308106 c 0,-10.421065 -8.47725,-18.898315 -18.89829,-18.898315"
       style="fill:#ffffff;fill-opacity:1;fill-rule:nonzero;stroke:none;stroke-width:0.0352777" />
  </g>
</svg>
